<?xml version="1.0"?>
<svg xmlns="http://www.w3.org/2000/svg" width="18" height="18" viewBox="0 0 18 18" fill="none">
  <g clip-path="url(#clip0_4_2)">
    <path d="M18 17.9991H16.704C16.575 18.0064 16.4476 17.9692 16.344 17.8941C16.2535 17.8212 16.1825 17.7282 16.137 17.6229L15.3 15.3743H10.8L9.9 17.5966C9.85706 17.6985 9.78908 17.7887 9.702 17.8591C9.60175 17.9419 9.47346 17.9855 9.342 17.9816H8.1L12.195 7.946H13.896L18 17.9991ZM14.823 14.2281L13.401 10.5621C13.2633 10.2071 13.1461 9.84488 13.05 9.47715C12.996 9.69297 12.939 9.89421 12.879 10.0809L12.708 10.5708L11.286 14.2368L14.823 14.2281Z" fill="white"/>
    <path d="M9.153 12.8457C8.23208 12.5385 7.3527 12.1243 6.534 11.612C7.79544 10.2949 8.66899 8.67197 9.063 6.91356H10.8V5.74989H6.579C6.53159 5.58245 6.47142 5.41867 6.399 5.25992C6.183 4.69121 5.94 4 5.94 4L4.617 4.43747C4.617 4.43747 4.977 5.21617 5.157 5.74989H0V6.91356H1.935C2.32938 8.67919 3.21691 10.3049 4.5 11.612C3.10945 12.4521 1.59055 13.0723 0 13.4494C0.336 13.9277 0.597 14.3302 0.783 14.6568C2.43693 14.1178 4.01515 13.38 5.481 12.4607C6.47689 13.1073 7.55358 13.6277 8.685 14.0094L9.153 12.8457ZM3.267 6.91356H7.686C7.39886 8.40747 6.62593 9.77228 5.481 10.8071C4.37785 9.73981 3.60993 8.38937 3.267 6.91356Z" fill="#3480F2"/>
  </g>
  <defs>
    <clipPath id="clip0_4_2">
      <rect width="18" height="18" fill="white"/>
    </clipPath>
  </defs>
</svg>
